<mxfile host="app.diagrams.net" modified="2024-05-13T01:23:17.481Z" agent="Mozilla/5.0 (Windows NT 10.0; Win64; x64) AppleWebKit/537.36 (KHTML, like Gecko) Chrome/124.0.0.0 Safari/537.36 Edg/124.0.0.0" version="24.4.0" etag="hG2W38ujlqwNHJuxdlT9" type="github">
  <diagram name="第 1 页" id="TATAiCgg2CaJk-kYhXV-">
    <mxGraphModel>
      <root>
        <mxCell id="0" />
        <mxCell id="1" parent="0" />
      </root>
    </mxGraphModel>
  </diagram>
</mxfile>
